<?xml version="1.0" encoding="UTF-8"?>
<svg width="900" height="1200" viewBox="0 0 900 1200" xmlns="http://www.w3.org/2000/svg">
    <!-- 배경 -->
    <rect width="900" height="1200" fill="#f8f9fa"/>
    <text x="450" y="40" font-family="Arial" font-size="24" font-weight="bold" text-anchor="middle" fill="#333">OTP 생성기 아키텍처 및 워크플로우</text>
    
    <!-- 모듈 구조 섹션 -->
    <rect x="50" y="70" width="800" height="180" rx="10" fill="#e6f2ff" stroke="#0066cc" stroke-width="2"/>
    <text x="450" y="90" font-family="Arial" font-size="18" font-weight="bold" text-anchor="middle" fill="#0066cc">모듈 구조</text>
    
    <!-- 모듈 상자들 -->
    <rect x="90" y="110" width="140" height="60" rx="5" fill="#ffffff" stroke="#0066cc" stroke-width="2"/>
    <text x="160" y="145" font-family="Arial" font-size="16" font-weight="bold" text-anchor="middle" fill="#0066cc">main.py</text>
    <text x="160" y="165" font-family="Arial" font-size="12" text-anchor="middle" fill="#555">프로그램 진입점</text>
    
    <rect x="270" y="110" width="140" height="60" rx="5" fill="#ffffff" stroke="#0066cc" stroke-width="2"/>
    <text x="340" y="145" font-family="Arial" font-size="16" font-weight="bold" text-anchor="middle" fill="#0066cc">otp_core.py</text>
    <text x="340" y="165" font-family="Arial" font-size="12" text-anchor="middle" fill="#555">OTP 생성 알고리즘</text>
    
    <rect x="450" y="110" width="140" height="60" rx="5" fill="#ffffff" stroke="#0066cc" stroke-width="2"/>
    <text x="520" y="145" font-family="Arial" font-size="16" font-weight="bold" text-anchor="middle" fill="#0066cc">key_manager.py</text>
    <text x="520" y="165" font-family="Arial" font-size="12" text-anchor="middle" fill="#555">키 관리</text>
    
    <rect x="630" y="110" width="140" height="60" rx="5" fill="#ffffff" stroke="#0066cc" stroke-width="2"/>
    <text x="700" y="145" font-family="Arial" font-size="16" font-weight="bold" text-anchor="middle" fill="#0066cc">ui.py</text>
    <text x="700" y="165" font-family="Arial" font-size="12" text-anchor="middle" fill="#555">GUI 인터페이스</text>
    
    <!-- 모듈 연결선 -->
    <line x1="160" y1="170" x2="160" y2="190" stroke="#0066cc" stroke-width="2"/>
    <line x1="340" y1="170" x2="340" y2="190" stroke="#0066cc" stroke-width="2"/>
    <line x1="520" y1="170" x2="520" y2="190" stroke="#0066cc" stroke-width="2"/>
    <line x1="700" y1="170" x2="700" y2="190" stroke="#0066cc" stroke-width="2"/>
    <line x1="160" y1="190" x2="700" y2="190" stroke="#0066cc" stroke-width="2"/>
    
    <!-- 데이터 스토리지 -->
    <rect x="450" y="200" width="160" height="30" rx="5" fill="#fff0f0" stroke="#cc0066" stroke-width="2"/>
    <text x="530" y="220" font-family="Arial" font-size="14" text-anchor="middle" fill="#cc0066">otp_keys.json</text>
    <line x1="520" y1="190" x2="520" y2="200" stroke="#0066cc" stroke-width="2" stroke-dasharray="5,2"/>
    
    <!-- 키 생성 및 암호화 섹션 -->
    <rect x="50" y="270" width="800" height="220" rx="10" fill="#f0fff0" stroke="#009933" stroke-width="2"/>
    <text x="450" y="290" font-family="Arial" font-size="18" font-weight="bold" text-anchor="middle" fill="#009933">키 생성 및 암호화</text>
    
    <!-- 사용자 입력 -->
    <ellipse cx="160" cy="340" rx="100" ry="40" fill="#ffffff" stroke="#009933" stroke-width="2"/>
    <text x="160" y="340" font-family="Arial" font-size="16" font-weight="bold" text-anchor="middle" fill="#009933">사용자 입력</text>
    <text x="160" y="360" font-family="Arial" font-size="12" text-anchor="middle" fill="#555">비밀번호/계정</text>
    
    <!-- PBKDF2 과정 -->
    <rect x="330" y="310" width="140" height="60" rx="5" fill="#ffffff" stroke="#009933" stroke-width="2"/>
    <text x="400" y="340" font-family="Arial" font-size="16" font-weight="bold" text-anchor="middle" fill="#009933">PBKDF2</text>
    <text x="400" y="360" font-family="Arial" font-size="12" text-anchor="middle" fill="#555">키 파생 함수</text>
    
    <!-- Salt 생성 -->
    <rect x="330" y="400" width="140" height="40" rx="5" fill="#ffffff" stroke="#009933" stroke-width="2"/>
    <text x="400" y="425" font-family="Arial" font-size="14" text-anchor="middle" fill="#555">임의 Salt 생성</text>
    
    <!-- 암호화 키 -->
    <rect x="530" y="310" width="140" height="60" rx="5" fill="#ffffff" stroke="#009933" stroke-width="2"/>
    <text x="600" y="340" font-family="Arial" font-size="16" font-weight="bold" text-anchor="middle" fill="#009933">암호화 키</text>
    <text x="600" y="360" font-family="Arial" font-size="12" text-anchor="middle" fill="#555">20 바이트</text>
    
    <!-- JSON 저장 -->
    <polygon points="650,400 550,400 550,440 600,460 650,440" fill="#ffffff" stroke="#009933" stroke-width="2"/>
    <text x="600" y="425" font-family="Arial" font-size="14" text-anchor="middle" fill="#555">JSON 저장</text>
    
    <!-- 연결선 -->
    <line x1="260" y1="340" x2="330" y2="340" stroke="#009933" stroke-width="2" marker-end="url(#arrowhead)"/>
    <line x1="400" y1="370" x2="400" y2="400" stroke="#009933" stroke-width="2"/>
    <line x1="470" y1="340" x2="530" y2="340" stroke="#009933" stroke-width="2" marker-end="url(#arrowhead)"/>
    <line x1="600" y1="370" x2="600" y2="400" stroke="#009933" stroke-width="2"/>
    
    <!-- OTP 생성 알고리즘 섹션 -->
    <rect x="50" y="510" width="800" height="380" rx="10" fill="#f0f0ff" stroke="#6600cc" stroke-width="2"/>
    <text x="450" y="530" font-family="Arial" font-size="18" font-weight="bold" text-anchor="middle" fill="#6600cc">OTP 생성 알고리즘</text>
    
    <!-- 현재 시간 -->
    <ellipse cx="160" cy="580" rx="100" ry="40" fill="#ffffff" stroke="#6600cc" stroke-width="2"/>
    <text x="160" y="580" font-family="Arial" font-size="16" font-weight="bold" text-anchor="middle" fill="#6600cc">현재 시간</text>
    <text x="160" y="600" font-family="Arial" font-size="12" text-anchor="middle" fill="#555">UNIX 타임스탬프</text>
    
    <!-- 타임스텝 변환 -->
    <rect x="330" y="550" width="140" height="60" rx="5" fill="#ffffff" stroke="#6600cc" stroke-width="2"/>
    <text x="400" y="580" font-family="Arial" font-size="16" font-weight="bold" text-anchor="middle" fill="#6600cc">30초 단위</text>
    <text x="400" y="600" font-family="Arial" font-size="12" text-anchor="middle" fill="#555">시간 → 카운터 변환</text>
    
    <!-- HMAC-SHA1 -->
    <rect x="530" y="550" width="140" height="60" rx="5" fill="#ffffff" stroke="#6600cc" stroke-width="2"/>
    <text x="600" y="575" font-family="Arial" font-size="16" font-weight="bold" text-anchor="middle" fill="#6600cc">HMAC-SHA1</text>
    <text x="600" y="595" font-family="Arial" font-size="12" text-anchor="middle" fill="#555">해시 생성</text>
    
    <!-- 동적 절단 -->
    <rect x="330" y="650" width="140" height="60" rx="5" fill="#ffffff" stroke="#6600cc" stroke-width="2"/>
    <text x="400" y="675" font-family="Arial" font-size="16" font-weight="bold" text-anchor="middle" fill="#6600cc">동적 절단</text>
    <text x="400" y="695" font-family="Arial" font-size="12" text-anchor="middle" fill="#555">Truncation</text>
    
    <!-- 모듈러 연산 -->
    <rect x="530" y="650" width="140" height="60" rx="5" fill="#ffffff" stroke="#6600cc" stroke-width="2"/>
    <text x="600" y="675" font-family="Arial" font-size="14" font-weight="bold" text-anchor="middle" fill="#6600cc">모듈러 연산</text>
    <text x="600" y="695" font-family="Arial" font-size="12" text-anchor="middle" fill="#555">10^digits</text>
    
    <!-- OTP 코드 결과 -->
    <rect x="430" y="750" width="140" height="60" rx="5" fill="#ffffff" stroke="#6600cc" stroke-width="2"/>
    <text x="500" y="775" font-family="Arial" font-size="18" font-weight="bold" text-anchor="middle" fill="#6600cc">OTP 코드</text>
    <text x="500" y="795" font-family="Arial" font-size="14" text-anchor="middle" fill="#555">6자리 숫자</text>
    
    <!-- 유효 시간 -->
    <rect x="230" y="750" width="140" height="60" rx="5" fill="#ffffff" stroke="#6600cc" stroke-width="2"/>
    <text x="300" y="775" font-family="Arial" font-size="16" font-weight="bold" text-anchor="middle" fill="#6600cc">유효 시간</text>
    <text x="300" y="795" font-family="Arial" font-size="14" text-anchor="middle" fill="#555">남은 초</text>
    
    <!-- 연결선 -->
    <line x1="260" y1="580" x2="330" y2="580" stroke="#6600cc" stroke-width="2" marker-end="url(#arrowhead)"/>
    <line x1="470" y1="580" x2="530" y2="580" stroke="#6600cc" stroke-width="2" marker-end="url(#arrowhead)"/>
    <line x1="600" y1="610" x2="600" y2="650" stroke="#6600cc" stroke-width="2" marker-end="url(#arrowhead)"/>
    <line x1="470" y1="680" x2="530" y2="680" stroke="#6600cc" stroke-width="2" marker-end="url(#arrowhead)"/>
    <line x1="600" y1="710" x2="600" y2="740" stroke="#6600cc" stroke-width="2"/>
    <line x1="600" y1="740" x2="500" y2="740" stroke="#6600cc" stroke-width="2"/>
    <line x1="500" y1="740" x2="500" y2="750" stroke="#6600cc" stroke-width="2" marker-end="url(#arrowhead)"/>
    <line x1="470" y1="580" x2="470" y2="650" stroke="#6600cc" stroke-width="2" marker-end="url(#arrowhead)"/>
    <line x1="230" y1="680" x2="330" y2="680" stroke="#6600cc" stroke-width="2"/>
    <line x1="230" y1="680" x2="230" y2="780" stroke="#6600cc" stroke-width="2"/>
    <line x1="230" y1="780" x2="230" y2="780" stroke="#6600cc" stroke-width="2" marker-end="url(#arrowhead)"/>
    
    <!-- 비밀키 연결 -->
    <line x1="700" y1="340" x2="750" y2="340" stroke="#009933" stroke-width="2"/>
    <line x1="750" y1="340" x2="750" y2="580" stroke="#009933" stroke-width="2"/>
    <line x1="750" y1="580" x2="670" y2="580" stroke="#009933" stroke-width="2" marker-end="url(#arrowhead)"/>
    <text x="770" y="460" font-family="Arial" font-size="14" text-anchor="middle" fill="#009933">비밀키</text>
    
    <!-- 인터페이스 섹션 -->
    <rect x="50" y="910" width="800" height="240" rx="10" fill="#fff0f0" stroke="#cc0066" stroke-width="2"/>
    <text x="450" y="930" font-family="Arial" font-size="18" font-weight="bold" text-anchor="middle" fill="#cc0066">인터페이스 및 외부 연동</text>
    
    <!-- CLI -->
    <rect x="150" y="960" width="140" height="60" rx="5" fill="#ffffff" stroke="#cc0066" stroke-width="2"/>
    <text x="220" y="990" font-family="Arial" font-size="16" font-weight="bold" text-anchor="middle" fill="#cc0066">CLI 모드</text>
    <text x="220" y="1010" font-family="Arial" font-size="12" text-anchor="middle" fill="#555">명령줄 인터페이스</text>
    
    <!-- GUI -->
    <rect x="350" y="960" width="140" height="60" rx="5" fill="#ffffff" stroke="#cc0066" stroke-width="2"/>
    <text x="420" y="990" font-family="Arial" font-size="16" font-weight="bold" text-anchor="middle" fill="#cc0066">GUI 모드</text>
    <text x="420" y="1010" font-family="Arial" font-size="12" text-anchor="middle" fill="#555">tkinter 인터페이스</text>
    
    <!-- QR 코드 -->
    <rect x="550" y="960" width="140" height="60" rx="5" fill="#ffffff" stroke="#cc0066" stroke-width="2"/>
    <text x="620" y="990" font-family="Arial" font-size="16" font-weight="bold" text-anchor="middle" fill="#cc0066">QR 코드</text>
    <text x="620" y="1010" font-family="Arial" font-size="12" text-anchor="middle" fill="#555">otpauth:// URL</text>
    
    <!-- 모바일 앱 -->
    <rect x="250" y="1060" width="140" height="60" rx="5" fill="#ffffff" stroke="#cc0066" stroke-width="2"/>
    <text x="320" y="1090" font-family="Arial" font-size="16" font-weight="bold" text-anchor="middle" fill="#cc0066">Mobile App</text>
    <text x="320" y="1110" font-family="Arial" font-size="12" text-anchor="middle" fill="#555">Google Authenticator</text>
    
    <!-- 결과 표시 -->
    <rect x="450" y="1060" width="140" height="60" rx="5" fill="#ffffff" stroke="#cc0066" stroke-width="2"/>
    <text x="520" y="1090" font-family="Arial" font-size="16" font-weight="bold" text-anchor="middle" fill="#cc0066">OTP 표시</text>
    <text x="520" y="1110" font-family="Arial" font-size="12" text-anchor="middle" fill="#555">코드 + 타이머</text>
    
    <!-- 연결선 -->
    <line x1="220" y1="1020" x2="220" y2="1040" stroke="#cc0066" stroke-width="2"/>
    <line x1="220" y1="1040" x2="320" y2="1040" stroke="#cc0066" stroke-width="2"/>
    <line x1="320" y1="1040" x2="320" y2="1060" stroke="#cc0066" stroke-width="2" marker-end="url(#arrowhead)"/>
    <line x1="420" y1="1020" x2="420" y2="1040" stroke="#cc0066" stroke-width="2"/>
    <line x1="420" y1="1040" x2="520" y2="1040" stroke="#cc0066" stroke-width="2"/>
    <line x1="520" y1="1040" x2="520" y2="1060" stroke="#cc0066" stroke-width="2" marker-end="url(#arrowhead)"/>
    <line x1="620" y1="1020" x2="620" y2="1090" stroke="#cc0066" stroke-width="2" marker-end="url(#arrowhead)"/>
    <line x1="390" y1="1090" x2="450" y2="1090" stroke="#cc0066" stroke-width="2" marker-end="url(#arrowhead)"/>
    
    <!-- OTP 코드에서 인터페이스로 연결 -->
    <line x1="500" y1="810" x2="500" y2="880" stroke="#6600cc" stroke-width="2"/>
    <line x1="500" y1="880" x2="220" y2="880" stroke="#6600cc" stroke-width="2"/>
    <line x1="220" y1="880" x2="220" y2="960" stroke="#6600cc" stroke-width="2" marker-end="url(#arrowhead)"/>
    <line x1="500" y1="880" x2="420" y2="880" stroke="#6600cc" stroke-width="2"/>
    <line x1="420" y1="880" x2="420" y2="960" stroke="#6600cc" stroke-width="2" marker-end="url(#arrowhead)"/>
    <line x1="500" y1="880" x2="620" y2="880" stroke="#6600cc" stroke-width="2"/>
    <line x1="620" y1="880" x2="620" y2="960" stroke="#6600cc" stroke-width="2" marker-end="url(#arrowhead)"/>
    
    <!-- 화살표 마커 정의 -->
    <defs>
        <marker id="arrowhead" markerWidth="10" markerHeight="7" refX="10" refY="3.5" orient="auto">
            <polygon points="0 0, 10 3.5, 0 7" fill="#333"/>
        </marker>
    </defs>
    
    <!-- 범례 -->
    <rect x="50" y="1170" width="800" height="30" rx="5" fill="#f8f9fa" stroke="#333" stroke-width="1"/>
    <text x="450" y="1190" font-family="Arial" font-size="14" text-anchor="middle" fill="#333">
        <tspan x="130" fill="#0066cc">■ 모듈 구조</tspan>
        <tspan x="270" fill="#009933">■ 키 생성/암호화</tspan>
        <tspan x="420" fill="#6600cc">■ OTP 알고리즘</tspan>
        <tspan x="570" fill="#cc0066">■ 인터페이스</tspan>
        <tspan x="710" fill="#555">→ 데이터 흐름</tspan>
    </text>
</svg>
